<svg width="74" height="67" viewBox="0 0 74 67" fill="none" xmlns="http://www.w3.org/2000/svg">
<path d="M38.1992 13.2279V9.08789C24.9229 9.08789 14.1182 19.7469 14.1182 32.8357C14.1182 45.9245 24.9229 56.5919 38.1992 56.5919V52.452C27.2314 52.452 18.3148 43.6555 18.3148 32.8357C18.3148 22.0158 27.2314 13.2194 38.1992 13.2194V13.2279Z" fill="#F7F7F7"/>
<path d="M8.9515 12.3308L14.6585 17.0555C15.0533 17.3773 15.5339 17.5382 16.0059 17.5382C16.6066 17.5382 17.1988 17.2842 17.6107 16.8015C18.3574 15.9294 18.2372 14.617 17.3533 13.8888L11.6462 9.16404C10.7623 8.42739 9.43209 8.54593 8.69404 9.41806C7.94741 10.2902 8.06755 11.6026 8.9515 12.3308Z" fill="#F7F7F7"/>
<path d="M11.6372 32.9796C11.6372 31.8365 10.7017 30.9136 9.54317 30.9136H2.094C0.935437 30.9136 0 31.8365 0 32.9796C0 34.1227 0.935437 35.0456 2.094 35.0456H9.54317C10.7017 35.0456 11.6372 34.1227 11.6372 32.9796Z" fill="#F7F7F7"/>
<path d="M20.7543 52.2588C19.8704 51.5221 18.5402 51.6407 17.8021 52.5128L13.0134 58.1435C12.2667 59.0157 12.3869 60.3281 13.2708 61.0563C13.6656 61.378 14.1462 61.5389 14.6182 61.5389C15.2189 61.5389 15.8111 61.2849 16.223 60.8023L21.0118 55.1715C21.7584 54.2994 21.6383 52.987 20.7543 52.2588Z" fill="#F7F7F7"/>
<path d="M25.3513 8.26883C25.6688 9.09021 26.467 9.59827 27.308 9.59827C27.5569 9.59827 27.8058 9.55593 28.0546 9.46279C29.136 9.05633 29.6766 7.86237 29.2647 6.79543L28.2263 4.10267C27.8143 3.03573 26.6043 2.50226 25.523 2.90871C24.4416 3.31517 23.901 4.50912 24.3129 5.57607L25.3513 8.26883Z" fill="#F7F7F7"/>
<path d="M7.62169 25.0651L10.3851 26.0134C10.6168 26.0896 10.8485 26.132 11.0716 26.132C11.9384 26.132 12.7537 25.5985 13.0541 24.7433C13.4317 23.6595 12.8567 22.4826 11.7582 22.11L8.99481 21.1617C7.89631 20.7891 6.70342 21.3564 6.32581 22.4402C5.9482 23.524 6.5232 24.701 7.62169 25.0735V25.0651Z" fill="#F7F7F7"/>
<path d="M13.3196 41.9458C12.9077 40.879 11.6976 40.3455 10.6163 40.752L7.88721 41.7765C6.80588 42.1829 6.26521 43.3768 6.67715 44.4437C6.99468 45.265 7.79281 45.7731 8.63384 45.7731C8.88272 45.7731 9.1316 45.7307 9.38047 45.6376L12.1095 44.613C13.1909 44.2066 13.7315 43.0127 13.3196 41.9458Z" fill="#F7F7F7"/>
<path d="M28.7919 56.7544C27.702 56.3819 26.5005 56.9492 26.1229 58.0331L25.1617 60.7597C24.7841 61.8436 25.3591 63.0206 26.4576 63.3932C26.6893 63.4694 26.9211 63.5118 27.1442 63.5118C28.011 63.5118 28.8263 62.9783 29.1266 62.123L30.0878 59.3964C30.4654 58.3125 29.8904 57.1355 28.7919 56.7629V56.7544Z" fill="#F7F7F7"/>
<path d="M72.4986 46.5403L67.1913 43.5162L70.9957 42.8469C72.2839 42.6182 73.1341 41.4068 72.9108 40.1446C72.6789 38.874 71.4509 38.0269 70.1713 38.2556L60.8364 39.899L55.9843 37.1374C56.4653 35.8328 56.7143 34.4605 56.7143 33.0543C56.7143 31.8429 56.5254 30.64 56.1561 29.488L60.8364 26.828L70.1713 28.4714C70.3087 28.4969 70.4547 28.5053 70.5921 28.5053C71.7171 28.5053 72.7133 27.709 72.9194 26.5824C73.1512 25.3117 72.2925 24.1003 71.0043 23.8801L67.1999 23.2109L72.5157 20.1867C73.6493 19.5429 74.0358 18.1197 73.3831 17.0015C72.7304 15.8834 71.2877 15.5022 70.1541 16.146L64.8469 19.1701L66.1608 15.5869C66.6074 14.3755 65.9719 13.0371 64.7438 12.5966C63.5158 12.1561 62.1589 12.7829 61.7124 13.9943L58.4834 22.7873L53.8975 25.3964C52.1285 23.321 49.6981 21.8978 47.0016 21.3642V15.6292L53.1075 8.47112C53.9491 7.48847 53.8202 6.0145 52.8241 5.18433C51.8279 4.35416 50.3336 4.48122 49.492 5.46387L47.0016 8.37794V2.32956C47.0016 1.04195 45.9453 0 44.6399 0C43.3346 0 42.2783 1.04195 42.2783 2.32956V14.7313C42.2783 14.7313 42.2783 14.7567 42.2783 14.7736V51.3096C42.2783 51.3096 42.2783 51.335 42.2783 51.3519V63.7537C42.2783 65.0413 43.3346 66.0832 44.6399 66.0832C45.9453 66.0832 47.0016 65.0413 47.0016 63.7537V57.7053L49.492 60.6193C49.9558 61.17 50.6256 61.4495 51.304 61.4495C51.8451 61.4495 52.3861 61.2716 52.8241 60.8989C53.8202 60.0687 53.9491 58.5947 53.1075 57.6121L47.0016 50.454V44.7275C49.5178 44.2362 51.7935 42.974 53.5368 41.1019L58.4748 43.9143L61.7038 52.7158C62.0559 53.6646 62.9576 54.2575 63.928 54.2575C64.1942 54.2575 64.469 54.2152 64.7353 54.1135C65.9633 53.673 66.5988 52.3346 66.1522 51.1232L64.8383 47.5315L70.1541 50.5557C70.5234 50.7674 70.9356 50.8691 71.3306 50.8691C72.1465 50.8691 72.9451 50.454 73.3831 49.7001C74.0358 48.5819 73.6493 47.1587 72.5157 46.5149L72.4986 46.5403ZM46.993 39.9244V26.1842C48.7191 26.7603 50.1962 27.9632 51.0979 29.6066C51.6819 30.6655 51.9825 31.826 51.9825 33.0543C51.9825 34.4012 51.6046 35.7142 50.9004 36.8494C49.9815 38.3234 48.5989 39.3907 47.0016 39.9244H46.993Z" fill="#F7F7F7"/>
</svg>
