<svg width="36" height="58" viewBox="0 0 36 58" fill="none" xmlns="http://www.w3.org/2000/svg">
<path d="M35.6595 9.91122V6.00122C23.2695 6.00122 13.1895 16.0812 13.1895 28.4712C13.1895 40.8612 23.2695 50.9412 35.6595 50.9412V47.0312C25.4295 47.0312 17.0995 38.7012 17.0995 28.4712C17.0995 18.2412 25.4295 9.91122 35.6595 9.91122Z" fill="white"/>
<path d="M8.35923 9.06109L13.6792 13.5311C14.0492 13.8411 14.4892 13.9911 14.9392 13.9911C15.4992 13.9911 16.0492 13.7511 16.4392 13.2911C17.1292 12.4611 17.0292 11.2311 16.1992 10.5311L10.8792 6.06109C10.0492 5.36109 8.81923 5.47109 8.11923 6.30109C7.42923 7.13109 7.52923 8.36109 8.35923 9.06109Z" fill="white"/>
<path d="M10.87 28.5911C10.87 27.5111 9.99 26.6311 8.91 26.6311H1.96C0.88 26.6311 0 27.5111 0 28.5911C0 29.6711 0.88 30.5511 1.96 30.5511H8.91C9.99 30.5511 10.87 29.6711 10.87 28.5911Z" fill="white"/>
<path d="M19.3707 46.8311C18.5407 46.1311 17.3107 46.2411 16.6107 47.0711L12.1407 52.3911C11.4507 53.2211 11.5507 54.4511 12.3807 55.1511C12.7507 55.4611 13.1907 55.6111 13.6407 55.6111C14.2007 55.6111 14.7507 55.3711 15.1407 54.9111L19.6107 49.5911C20.3007 48.7611 20.2007 47.5311 19.3707 46.8311Z" fill="white"/>
<path d="M23.6695 5.21114C23.9695 5.99114 24.7095 6.47114 25.4995 6.47114C25.7295 6.47114 25.9695 6.43115 26.1995 6.34115C27.2095 5.95115 27.7195 4.82114 27.3295 3.81114L26.3595 1.26115C25.9695 0.251145 24.8395 -0.258856 23.8295 0.131144C22.8195 0.521144 22.3095 1.65114 22.6995 2.66114L23.6695 5.21114Z" fill="white"/>
<path d="M7.10955 21.111L9.68955 22.001C9.89955 22.071 10.1195 22.111 10.3295 22.111C11.1395 22.111 11.8995 21.601 12.1795 20.791C12.5295 19.771 11.9896 18.651 10.9696 18.301L8.38955 17.411C7.36955 17.061 6.24955 17.601 5.89955 18.621C5.54955 19.641 6.08955 20.761 7.10955 21.111Z" fill="white"/>
<path d="M12.429 37.0812C12.039 36.0712 10.909 35.5612 9.89903 35.9512L7.34903 36.9212C6.33903 37.3112 5.82904 38.4412 6.21904 39.4512C6.51904 40.2312 7.25903 40.7112 8.04903 40.7112C8.27903 40.7112 8.51903 40.6712 8.74903 40.5812L11.299 39.6112C12.309 39.2212 12.819 38.0912 12.429 37.0812Z" fill="white"/>
<path d="M26.8792 51.0912C25.8592 50.7412 24.7392 51.2812 24.3892 52.3012L23.4992 54.8812C23.1492 55.9012 23.6892 57.0212 24.7092 57.3712C24.9192 57.4412 25.1392 57.4812 25.3492 57.4812C26.1592 57.4812 26.9192 56.9712 27.1992 56.1612L28.0892 53.5812C28.4392 52.5612 27.8992 51.4412 26.8792 51.0912Z" fill="white"/>
</svg>
