<svg width="30" height="63" viewBox="0 0 30 63" fill="none" xmlns="http://www.w3.org/2000/svg">
<path d="M28.2 43.99L23.25 41.13L26.8 40.5C28 40.29 28.8 39.14 28.58 37.94C28.37 36.74 27.22 35.94 26.02 36.16L17.31 37.71L12.78 35.1C13.23 33.87 13.46 32.57 13.46 31.24C13.46 30.09 13.28 28.96 12.94 27.87L17.3 25.35L26.01 26.9C26.14 26.92 26.27 26.93 26.4 26.93C27.45 26.93 28.38 26.18 28.57 25.11C28.78 23.91 27.98 22.77 26.79 22.55L23.24 21.92L28.19 19.06C29.24 18.45 29.61 17.1 29 16.05C28.39 14.99 27.04 14.63 25.99 15.24L21.04 18.1L22.27 14.71C22.68 13.56 22.09 12.3 20.95 11.89C19.81 11.48 18.54 12.07 18.13 13.21L15.12 21.53L10.85 24C9.2 22.04 6.93 20.69 4.42 20.19V14.77L10.12 8.01C10.9 7.08 10.79 5.69 9.85 4.9C8.92 4.12 7.53 4.23 6.74 5.17L4.42 7.93V2.21C4.42 0.989999 3.43 0 2.21 0C0.989999 0 0 0.989999 0 2.21V13.93C0 13.93 0 13.96 0 13.97V48.52C0 48.52 0 48.55 0 48.56V60.28C0 61.5 0.989999 62.49 2.21 62.49C3.43 62.49 4.42 61.5 4.42 60.28V54.56L6.74 57.32C7.18 57.84 7.8 58.1 8.43 58.1C8.93 58.1 9.44 57.93 9.85 57.58C10.78 56.8 10.9 55.4 10.12 54.47L4.42 47.71V42.29C6.77 41.83 8.89 40.63 10.51 38.86L15.12 41.52L18.13 49.84C18.45 50.74 19.3 51.3 20.2 51.3C20.45 51.3 20.7 51.26 20.95 51.17C22.1 50.76 22.69 49.49 22.27 48.35L21.04 44.96L25.99 47.82C26.34 48.02 26.72 48.12 27.09 48.12C27.85 48.12 28.59 47.72 29 47.02C29.61 45.97 29.25 44.62 28.19 44.01L28.2 43.99ZM4.41 37.73V24.74C6.02 25.29 7.4 26.42 8.24 27.97C8.79 28.97 9.06 30.07 9.06 31.23C9.06 32.5 8.71 33.75 8.05 34.82C7.19 36.21 5.9 37.22 4.41 37.73Z" fill="#81C165"/>
</svg>
