<svg width="160" height="159" viewBox="0 0 160 159" fill="none" xmlns="http://www.w3.org/2000/svg">
<g clip-path="url(#clip0_129_5)">
<path d="M65.1848 124.491C55.5902 114.749 49.5456 101.433 49.3153 86.6573C48.8164 56.1831 73.0908 31.089 103.506 30.5894C133.94 30.0899 159.001 54.3962 159.5 84.8512C159.654 94.8043 157.159 104.181 152.688 112.328C154.914 106.487 156.103 100.127 156.008 93.4977C155.547 65.6175 132.616 43.3863 104.772 43.8474C76.9286 44.3086 54.7267 67.2699 55.1872 95.1502C55.3599 106.16 59.0634 116.305 65.1848 124.491ZM93.1627 150.315C53.1531 150.968 20.186 119.015 19.5336 78.9523C18.8811 38.8901 50.7737 5.87958 90.8024 5.22629C100.416 5.07257 109.627 6.82109 118.07 10.0876C106.25 3.45855 92.6062 -0.23063 78.0992 -5.64521e-05C34.2517 0.730095 -0.711096 36.8918 -0.00109372 80.7969C0.708909 124.702 36.8231 159.711 80.6705 158.981C102.028 158.635 121.256 149.854 135.302 135.885C123.52 144.704 108.975 150.046 93.1435 150.296L93.1627 150.315ZM73.6473 138.959C43.6545 122.781 32.4479 85.3315 48.5861 55.3185C64.7434 25.2862 102.143 14.065 132.117 30.2244C145.242 37.2953 154.76 48.4589 159.98 61.275C155.47 43.7321 143.957 28.0339 126.763 18.7725C94.103 1.15281 53.345 13.3924 35.7485 46.1147C18.1519 78.837 30.3755 119.649 63.0548 137.268C71.9586 142.072 81.4765 144.647 90.956 145.204C85.0649 144.032 79.2313 141.976 73.6664 138.978L73.6473 138.959Z" fill="#81C165"/>
</g>
<defs>
<clipPath id="clip0_129_5">
<rect width="160" height="159" fill="white"/>
</clipPath>
</defs>
</svg>
