<svg width="101" height="97" viewBox="0 0 101 97" fill="none" xmlns="http://www.w3.org/2000/svg">
<g clip-path="url(#clip0_204_2)">
<path fill-rule="evenodd" clip-rule="evenodd" d="M48.24 95.93H0.5V0.5H48.24" fill="#81C165"/>
<path fill-rule="evenodd" clip-rule="evenodd" d="M74.5093 44.65C72.5193 39.84 68.7293 35.86 65.2393 32.1C60.3193 26.78 55.2093 21.11 52.0293 11.99V78.24C65.4493 78.24 76.3393 67.36 76.3393 53.93C76.3393 50.64 75.6893 47.51 74.5093 44.65Z" fill="#81C165"/>
<path fill-rule="evenodd" clip-rule="evenodd" d="M48.2209 67.2801C48.2209 67.2801 48.1609 67.2801 48.1209 67.2801C40.3709 67.2801 34.0909 61.0001 34.0909 53.2501C34.0909 45.5001 40.3709 39.2201 48.1209 39.2201C48.1509 39.2201 48.1809 39.2201 48.2209 39.2201V30.3301H43.8909C43.3209 30.3301 42.8509 30.8001 42.8509 31.3701V35.7801C41.6809 36.1301 40.5609 36.6001 39.5109 37.1701L36.3909 34.0501C35.9909 33.6501 35.3209 33.6501 34.9209 34.0501L28.9309 40.0401C28.5309 40.4401 28.5309 41.1101 28.9309 41.5101L32.0509 44.6301C31.4809 45.6901 31.0209 46.8001 30.6609 47.9701H26.2509C25.6809 47.9701 25.2109 48.4401 25.2109 49.0101V57.4801C25.2109 58.0501 25.6809 58.5201 26.2509 58.5201H30.6609C31.0109 59.6901 31.4809 60.8101 32.0509 61.8601L28.9309 64.9801C28.5309 65.3801 28.5309 66.0501 28.9309 66.4501L34.9209 72.4401C35.3209 72.8401 35.9909 72.8401 36.3909 72.4401L39.5109 69.3201C40.5709 69.8901 41.6809 70.3501 42.8509 70.7101V75.1201C42.8509 75.6901 43.3209 76.1601 43.8909 76.1601H48.2209V67.2701V67.2801Z" fill="white"/>
<path d="M51.8496 0.5H99.7496V95.93H51.8496" stroke="#81C165" stroke-miterlimit="10"/>
<path d="M48.24 95.93H0.5V0.5H48.24" stroke="#81C165" stroke-miterlimit="10"/>
</g>
<defs>
<clipPath id="clip0_204_2">
<rect width="100.25" height="96.43" fill="white"/>
</clipPath>
</defs>
</svg>
