<svg width="101" height="97" viewBox="0 0 101 97" fill="none" xmlns="http://www.w3.org/2000/svg">
<g clip-path="url(#clip0_135_17)">
<path d="M48.22 27.91V24C35.83 24 25.75 34.08 25.75 46.47C25.75 58.86 35.83 68.94 48.22 68.94V65.03C37.99 65.03 29.66 56.7 29.66 46.47C29.66 36.24 37.99 27.91 48.22 27.91Z" fill="white"/>
<path d="M20.9198 27.0599L26.2398 31.5299C26.6098 31.8399 27.0498 31.9899 27.4998 31.9899C28.0598 31.9899 28.6098 31.7499 28.9998 31.2899C29.6898 30.4599 29.5898 29.2299 28.7598 28.5299L23.4398 24.0599C22.6098 23.3599 21.3798 23.4699 20.6798 24.2999C19.9898 25.1299 20.0898 26.3599 20.9198 27.0599Z" fill="white"/>
<path d="M23.4305 46.5899C23.4305 45.5099 22.5505 44.6299 21.4705 44.6299H14.5205C13.4405 44.6299 12.5605 45.5099 12.5605 46.5899C12.5605 47.6699 13.4405 48.5499 14.5205 48.5499H21.4705C22.5505 48.5499 23.4305 47.6699 23.4305 46.5899Z" fill="white"/>
<path d="M31.9313 64.8299C31.1013 64.1299 29.8713 64.2399 29.1713 65.0699L24.7013 70.3899C24.0113 71.2199 24.1113 72.4499 24.9413 73.1499C25.3113 73.4599 25.7513 73.6099 26.2013 73.6099C26.7613 73.6099 27.3113 73.3699 27.7013 72.9099L32.1713 67.5899C32.8613 66.7599 32.7613 65.5299 31.9313 64.8299Z" fill="white"/>
<path d="M36.2301 23.2099C36.5301 23.9899 37.2701 24.4699 38.0601 24.4699C38.2901 24.4699 38.5301 24.4299 38.7601 24.3399C39.7701 23.9499 40.2801 22.8199 39.8901 21.8099L38.9201 19.2599C38.5301 18.2499 37.4001 17.7399 36.3901 18.1299C35.3801 18.5199 34.8701 19.6499 35.2601 20.6599L36.2301 23.2099Z" fill="white"/>
<path d="M19.6701 39.1098L22.2501 39.9998C22.4601 40.0698 22.6801 40.1098 22.8901 40.1098C23.7001 40.1098 24.4601 39.5998 24.7401 38.7898C25.0901 37.7698 24.5501 36.6498 23.5301 36.2998L20.9501 35.4098C19.9301 35.0598 18.8101 35.5998 18.4601 36.6198C18.1101 37.6398 18.6501 38.7598 19.6701 39.1098Z" fill="white"/>
<path d="M24.9896 55.0799C24.5996 54.0699 23.4696 53.5599 22.4596 53.9499L19.9096 54.9199C18.8996 55.3099 18.3896 56.4399 18.7796 57.4499C19.0796 58.2299 19.8196 58.7099 20.6096 58.7099C20.8396 58.7099 21.0796 58.6699 21.3096 58.5799L23.8596 57.6099C24.8696 57.2199 25.3796 56.0899 24.9896 55.0799Z" fill="white"/>
<path d="M39.4397 69.09C38.4197 68.74 37.2997 69.28 36.9497 70.3L36.0597 72.88C35.7097 73.9 36.2497 75.02 37.2697 75.37C37.4797 75.44 37.6997 75.48 37.9097 75.48C38.7197 75.48 39.4797 74.97 39.7597 74.16L40.6497 71.58C40.9997 70.56 40.4597 69.44 39.4397 69.09Z" fill="white"/>
<path d="M80.2391 59.1599L75.2891 56.2999L78.8391 55.6699C80.0391 55.4599 80.8391 54.3099 80.6191 53.1099C80.4091 51.9099 79.2591 51.1099 78.0591 51.3299L69.3491 52.8799L64.8191 50.2699C65.2691 49.0399 65.4991 47.7399 65.4991 46.4099C65.4991 45.2599 65.3191 44.1299 64.9791 43.0399L69.3391 40.5199L78.0491 42.0699C78.1791 42.0899 78.3091 42.0999 78.4391 42.0999C79.4891 42.0999 80.4191 41.3499 80.6091 40.2799C80.8191 39.0799 80.0191 37.9399 78.8291 37.7199L75.2791 37.0899L80.2291 34.2299C81.2791 33.6199 81.6491 32.2699 81.0391 31.2199C80.4291 30.1599 79.0791 29.7999 78.0291 30.4099L73.0791 33.2699L74.3091 29.8799C74.7191 28.7299 74.1291 27.4699 72.9891 27.0599C71.8491 26.6499 70.5791 27.2399 70.1691 28.3799L67.1591 36.6999L62.8891 39.1699C61.2391 37.2099 58.9691 35.8599 56.4591 35.3599V29.9399L62.1591 23.1799C62.9391 22.2499 62.8291 20.8599 61.8891 20.0699C60.9591 19.2899 59.5691 19.3999 58.7791 20.3399L56.4591 23.0999V17.3799C56.4591 16.1599 55.4691 15.1699 54.2491 15.1699C53.0291 15.1699 52.0391 16.1599 52.0391 17.3799V29.0999C52.0391 29.0999 52.0391 29.1299 52.0391 29.1399V63.6899C52.0391 63.6899 52.0391 63.7199 52.0391 63.7299V75.4499C52.0391 76.6699 53.0291 77.6599 54.2491 77.6599C55.4691 77.6599 56.4591 76.6699 56.4591 75.4499V69.7299L58.7791 72.4899C59.2191 73.0099 59.8391 73.2699 60.4691 73.2699C60.9691 73.2699 61.4791 73.0999 61.8891 72.7499C62.8191 71.9699 62.9391 70.5699 62.1591 69.6399L56.4591 62.8799V57.4599C58.8091 56.9999 60.9291 55.7999 62.5491 54.0299L67.1591 56.6899L70.1691 65.0099C70.4891 65.9099 71.3391 66.4699 72.2391 66.4699C72.4891 66.4699 72.7391 66.4299 72.9891 66.3399C74.1391 65.9299 74.7291 64.6599 74.3091 63.5199L73.0791 60.1299L78.0291 62.9899C78.3791 63.1899 78.7591 63.2899 79.1291 63.2899C79.8891 63.2899 80.6291 62.8899 81.0391 62.1899C81.6491 61.1399 81.2891 59.7899 80.2291 59.1799L80.2391 59.1599ZM56.4491 52.8999V39.9099C58.0591 40.4599 59.4391 41.5899 60.2791 43.1399C60.8291 44.1399 61.0991 45.2399 61.0991 46.3999C61.0991 47.6699 60.7491 48.9199 60.0891 49.9899C59.2291 51.3799 57.9391 52.3899 56.4491 52.8999Z" fill="#051229"/>
<path d="M51.8496 0.5H99.7496V95.93H51.8496" stroke="#051229" stroke-miterlimit="10"/>
<path d="M48.24 95.93H0.5V0.5H48.24" stroke="white" stroke-miterlimit="10"/>
</g>
<defs>
<clipPath id="clip0_135_17">
<rect width="100.25" height="96.43" fill="white"/>
</clipPath>
</defs>
</svg>
