<svg width="101" height="97" viewBox="0 0 101 97" fill="none" xmlns="http://www.w3.org/2000/svg">
<g clip-path="url(#clip0_135_51)">
<path d="M51.8496 0.5H99.7496V95.93H51.8496" stroke="#051229" stroke-miterlimit="10"/>
<path d="M48.24 95.93H0.5V0.5H48.24" stroke="white" stroke-miterlimit="10"/>
<path d="M39.3798 27.22C39.3798 27.22 39.3798 27.22 39.3698 27.22C34.0598 34.37 33.7798 43.71 37.9198 51L30.8798 44.26C32.4098 41.29 32.1398 37.57 29.8898 34.82C29.3198 34.12 28.6598 33.54 27.9498 33.07C26.2798 36.08 26.4998 39.93 28.8098 42.76C29.1798 43.21 29.5898 43.61 30.0298 43.97L29.6798 44.34C29.0198 43.54 28.2498 42.81 27.3898 42.16C22.8598 38.77 16.8898 38.67 12.3398 41.46C13.1098 42.53 14.0598 43.51 15.1798 44.35C19.3398 47.47 24.7298 47.8 29.1098 45.66L36.6298 52.87C32.5698 51.06 27.8898 51.41 24.1698 53.69C24.9398 54.76 25.8898 55.74 27.0098 56.58C31.3698 59.85 37.0698 60.05 41.5498 57.58L50.1798 65.85V62.63L44.2598 57.07C50.8798 47.48 48.7998 34.29 39.3898 27.23L39.3798 27.22Z" fill="white"/>
<path d="M52.1504 52.88C54.5804 52.88 56.5604 50.91 56.5604 48.47V26.29C56.5604 23.86 54.5904 21.88 52.1504 21.88V52.87V52.88Z" fill="#051229"/>
<path d="M70.8506 28.63C69.1306 26.91 66.3406 26.92 64.6206 28.63C62.9006 30.35 62.9106 33.14 64.6206 34.86C67.9706 38.2 69.8206 42.65 69.8206 47.38C69.8206 57.13 61.8906 65.06 52.1406 65.06V73.87C66.7506 73.87 78.6306 61.99 78.6306 47.38C78.6306 40.29 75.8606 33.63 70.8406 28.62L70.8506 28.63Z" fill="#051229"/>
</g>
<defs>
<clipPath id="clip0_135_51">
<rect width="100.25" height="96.43" fill="white"/>
</clipPath>
</defs>
</svg>
