<svg width="101" height="97" viewBox="0 0 101 97" fill="none" xmlns="http://www.w3.org/2000/svg">
<g clip-path="url(#clip0_135_37)">
<path fill-rule="evenodd" clip-rule="evenodd" d="M74.5093 44.65C72.5193 39.84 68.7293 35.86 65.2393 32.1C60.3193 26.78 55.2093 21.11 52.0293 11.99V78.24C65.4493 78.24 76.3393 67.36 76.3393 53.93C76.3393 50.64 75.6893 47.51 74.5093 44.65Z" fill="#81C165"/>
<path fill-rule="evenodd" clip-rule="evenodd" d="M48.2209 67.28C48.2209 67.28 48.1609 67.28 48.1209 67.28C40.3709 67.28 34.0909 61 34.0909 53.25C34.0909 45.5 40.3709 39.22 48.1209 39.22C48.1509 39.22 48.1809 39.22 48.2209 39.22V30.33H43.8909C43.3209 30.33 42.8509 30.8 42.8509 31.37V35.78C41.6809 36.13 40.5609 36.6 39.5109 37.17L36.3909 34.05C35.9909 33.65 35.3209 33.65 34.9209 34.05L28.9309 40.04C28.5309 40.44 28.5309 41.11 28.9309 41.51L32.0509 44.63C31.4809 45.69 31.0209 46.8 30.6609 47.97H26.2509C25.6809 47.97 25.2109 48.44 25.2109 49.01V57.48C25.2109 58.05 25.6809 58.52 26.2509 58.52H30.6609C31.0109 59.69 31.4809 60.81 32.0509 61.86L28.9309 64.98C28.5309 65.38 28.5309 66.0499 28.9309 66.45L34.9209 72.44C35.3209 72.84 35.9909 72.84 36.3909 72.44L39.5109 69.32C40.5709 69.89 41.6809 70.35 42.8509 70.71V75.12C42.8509 75.69 43.3209 76.16 43.8909 76.16H48.2209V67.27V67.28Z" fill="white"/>
<path d="M51.8496 0.5H99.7496V95.93H51.8496" stroke="#81C165" stroke-miterlimit="10"/>
<path d="M48.24 95.93H0.5V0.5H48.24" stroke="white" stroke-miterlimit="10"/>
</g>
<defs>
<clipPath id="clip0_135_37">
<rect width="100.25" height="96.43" fill="white"/>
</clipPath>
</defs>
</svg>
